# xmcd
#
# Track frame offsets:
#	150
#	19478
#	38886
#	61451
#	78033
#	96100
#	117254
#	135825
#	161880
#	180505
#	198547
#	214691
#	236099
#	253093
#	267211
#	287306
#	304084
#	337408
#
# Disc length: 4770 seconds
#
# Revision: 1
# Processed by: cddbd v1.5.1PL0 Copyright (c) Steve Scherf et al.
# Submitted via: audiograbber 1.83.01
#
DISCID=0312a012
DTITLE=Christina Aguilera. - Can't Hold Us Down.
DYEAR=1900
DGENRE=
TTITLE0=Can't Hold Us Down. (feat. Lil' Kim)
TTITLE1=Infatuation.
TTITLE2=Dirty. (feat. Redman)
TTITLE3=Geniee In A Bottle.
TTITLE4=Underappreciated.
TTITLE5=El Bleso Del Final.
TTITLE6=Make Over.
TTITLE7=Walk Away.
TTITLE8=Fighter.
TTITLE9=Beautiful.
TTITLE10=What A Girl Wants.
TTITLE11=Soar.
TTITLE12=Get Mine, Get Yours.
TTITLE13=Blessed.
TTITLE14=Lady Marmalade. (with Lil' Kim, Mya and Pink)
TTITLE15=Just Be Free.
TTITLE16=Can't Hold Us Down. (Sharp Boys Orange Vocal Mix)
TTITLE17=Can't Hold Us Down. (Jacknife Lee Mix)
EXTD=
EXTT0=
EXTT1=
EXTT2=
EXTT3=
EXTT4=
EXTT5=
EXTT6=
EXTT7=
EXTT8=
EXTT9=
EXTT10=
EXTT11=
EXTT12=
EXTT13=
EXTT14=
EXTT15=
EXTT16=
EXTT17=
PLAYORDER=
